<svg xmlns="http://www.w3.org/2000/svg" width="30" height="19" viewBox="0 0 30 19">
    <g fill="none" fill-rule="evenodd">
        <g fill="#F9F9F9" fill-rule="nonzero">
            <g>
                <g>
                    <g>
                        <path d="M2.267 0c-.285 0-.556.059-.805.155l12.632 10.5c.553.46 1.17.46 1.724 0L28.462.144C28.216.051 27.948 0 27.668 0H2.267zM.023 2C.008 2.103 0 2.21 0 2.317v14.507C0 18.029.979 19 2.195 19h25.61C29.02 19 30 18.03 30 16.824V2.317c0-.107-.008-.214-.023-.317l-12.69 10.699c-1.316 1.109-3.281 1.11-4.596 0L.023 2z" transform="translate(-257 -4728) translate(-78 4345) translate(256 380) translate(79 3)"/>
                    </g>
                </g>
            </g>
        </g>
    </g>
</svg>
