<svg xmlns="http://www.w3.org/2000/svg" width="24" height="24" viewBox="0 0 24 24">
    <g fill="none" fill-rule="evenodd">
        <g fill="#FFF">
            <g>
                <g>
                    <g>
                        <path d="M20 19h-3v-5.604c0-3.368-4-3.113-4 0V19h-3V8h3v1.765c1.396-2.586 7-2.777 7 2.476V19zM6.5 6.732c-.966 0-1.75-.79-1.75-1.764s.784-1.764 1.75-1.764c.967 0 1.75.79 1.75 1.764S7.467 6.732 6.5 6.732zM5 19h3V8H5v11zM19 0H5C2.239 0 0 2.239 0 5v14c0 2.761 2.239 5 5 5h14c2.762 0 5-2.239 5-5V5c0-2.761-2.238-5-5-5z" transform="translate(-217 -4725) translate(-78 4345) translate(256 380) translate(39)"/>
                    </g>
                </g>
            </g>
        </g>
    </g>
</svg>
