<?xml version="1.0" encoding="UTF-8"?>
<svg width="104px" height="20px" viewBox="0 0 104 20" version="1.1" xmlns="http://www.w3.org/2000/svg" xmlns:xlink="http://www.w3.org/1999/xlink">
    <title>LOGO/PONICODE TEXT</title>
    <g id="Page-1" stroke="none" stroke-width="1" fill="none" fill-rule="evenodd">
        <g id="A---Light" transform="translate(-229.000000, -59.000000)" fill="#FFFFFF">
            <g id="TOPBAR" transform="translate(179.000000, 48.000000)">
                <g id="LOGO/PONICODE-TEXT" transform="translate(50.000000, 11.000000)">
                    <g id="ponicode">
                        <path d="M4.3272747,13.6666673 L4.3272747,20 L0,20 L0,1 L6.53333388,1 C7.80606128,1 8.99393977,1.17351604 9.9272733,1.43378965 C10.8606064,1.6940646 11.6242434,2.21461138 12.2181831,2.73515994 C12.8121224,3.2557085 13.2363638,3.94977177 13.5757577,4.7305935 C13.8303031,5.51141567 14,6.2922374 14,7.15981848 C14,8.11415536 13.8303031,8.98173555 13.5757577,9.76255773 C13.3212123,10.5433795 12.8121224,11.2374427 12.2181831,11.7579908 C11.6242434,12.365297 10.8606064,12.7990862 9.9272733,13.0593607 C8.99393977,13.4063932 7.89090843,13.4931503 6.61818104,13.4931503 L4.3272747,13.4931503 L4.3272747,13.6666673 Z M4.3272747,10.3698625 L6.53333388,10.3698625 C7.63636391,10.3698625 8.48485072,10.1095889 8.99394151,9.58904035 C9.50303229,9.06849268 9.75757594,8.28767095 9.75757594,7.33333274 C9.75757594,6.89954309 9.67272704,6.46575344 9.58787814,6.11872136 C9.50302968,5.77168884 9.2484869,5.42465632 8.99394151,5.16438315 C8.73939612,4.90410953 8.40000096,4.7305935 7.97575907,4.55707746 C7.55151675,4.38356097 7.12727313,4.38356097 6.53333388,4.38356097 L4.3272747,4.38356097 L4.3272747,10.3698625 L4.3272747,10.3698625 Z" id="Fill-433"></path>
                        <path d="M21,6 C22.0632906,6 23.0379716,6.17391128 23.8354397,6.52173786 C24.7215159,6.86956444 25.4303769,7.3043471 26.0506294,7.91304283 C26.6708819,8.52173901 27.1139193,9.21739082 27.4683496,10.0869562 C27.8227794,10.956521 28,11.9130438 28,12.9565226 C28,14 27.8227794,15.0434772 27.4683496,15.9130425 C27.1139193,16.7826083 26.6708819,17.4782605 26.0506294,18.0869558 C25.4303769,18.695652 24.7215159,19.1304365 23.8354397,19.4782621 C22.9493645,19.8260887 22.0632906,20 21,20 C19.9367094,20 18.9620216,19.8260887 18.1645535,19.4782621 C17.3670854,19.1304365 16.5696204,18.695652 15.9493674,18.0869558 C15.3291144,17.4782605 14.8860743,16.7826083 14.5316441,15.9130425 C14.1772138,15.0434772 14,14.0869571 14,12.9565226 C14,11.9130438 14.1772138,10.956521 14.5316441,10.0869562 C14.8860743,9.21739082 15.3291144,8.52173901 15.9493674,7.91304283 C16.5696204,7.3043471 17.2784778,6.86956444 18.1645535,6.52173786 C18.9620216,6.17391128 19.9367094,6 21,6 Z M20.9999998,16.9565214 C21.9746835,16.9565214 22.6835449,16.608697 23.1265832,16.0000017 C23.5696215,15.3043486 23.8354397,14.3478263 23.8354397,13.0434778 C23.8354397,11.7391298 23.5696215,10.6956514 23.1265832,10.0869562 C22.6835449,9.47826042 21.9746835,9.13043429 20.9999998,9.13043429 C20.025317,9.13043429 19.3164546,9.47826042 18.8734168,10.0869562 C18.4303789,10.7826089 18.1645535,11.7391298 18.1645535,13.0434778 C18.1645535,14.3478263 18.4303789,15.3913051 18.8734168,16.0000017 C19.3164546,16.608697 20.025317,16.9565214 20.9999998,16.9565214 Z" id="Fill-434"></path>
                        <path d="M29,20 L29,6.17721475 L31.4680803,6.17721475 C31.7233995,6.17721475 31.8936159,6.26582235 32.0638287,6.35442995 C32.2340416,6.44303755 32.3191493,6.62025275 32.4042557,6.88607601 L32.6595711,7.68354396 C32.9148904,7.41772116 33.1702105,7.24050505 33.4255294,6.97468179 C33.6808486,6.7974675 34.0212744,6.62025275 34.2765936,6.44303846 C34.5319129,6.26582326 34.9574424,6.17721384 35.2978677,6.08860624 C35.638293,6 36.0638268,6 36.4893581,6 C37.1702099,6 37.8510631,6.0886076 38.4468081,6.35442995 C39.0425526,6.62025275 39.4680817,6.97468179 39.8936143,7.41772025 C40.2340395,7.86075871 40.5744648,8.39240567 40.7446781,9.10126602 C40.9148905,9.72151877 41,10.43038 41,11.2278484 L41,20 L37.085107,20 L37.085107,11.2278484 C37.085107,10.5189872 36.9148942,9.98734112 36.6595749,9.63291027 C36.4042565,9.27847941 35.8936179,9.10126602 35.3829794,9.10126602 C34.9574472,9.10126602 34.5319142,9.18987272 34.1914885,9.36708792 C33.7659568,9.54430357 33.4255285,9.81012547 33.0851028,10.1645563 L33.0851028,20 L29,20 Z" id="Fill-435"></path>
                        <path d="M49,2.47787695 C49,2.83185982 48.9107103,3.09734573 48.8214248,3.3628321 C48.7321388,3.62831982 48.4642831,3.89380618 48.2857116,4.15929209 C48.0178541,4.33628375 47.7499957,4.51327496 47.4821386,4.69026618 C47.2142811,4.77876133 46.8571399,4.86725602 46.5,4.86725602 C46.1428537,4.86725602 45.8749981,4.77876133 45.517855,4.69026618 C45.2499975,4.60177148 44.9821391,4.42477845 44.714282,4.15929209 C44.4464245,3.98230088 44.2678543,3.71681452 44.1785688,3.3628321 C44.0892828,3.09734573 44,2.74336331 44,2.47787695 C44,2.12389407 44.0892828,1.85840817 44.1785688,1.50442529 C44.2678543,1.23893938 44.4464245,0.973451205 44.714282,0.707965296 C44.9821391,0.442478934 45.1607119,0.353982421 45.517855,0.176991211 C45.8749981,-5.68434189e-14 46.1428537,-5.68434189e-14 46.5,-5.68434189e-14 C46.8571399,-5.68434189e-14 47.2142811,0.0884965125 47.4821386,0.176991211 C47.7499957,0.265487723 48.0178541,0.442478934 48.2857116,0.707965296 C48.5535687,0.884956507 48.7321388,1.15044287 48.8214248,1.50442529 C49,1.85840817 49,2.12389407 49,2.47787695 Z M48.5535719,6.1946901 L48.5535719,20 L44.3571376,20 L44.3571376,6.1946901 L48.5535719,6.1946901 Z" id="Fill-436"></path>
                        <path d="M60.7647111,9.52201191 C60.6764754,9.6981131 60.5,9.78616256 60.4117687,9.87421383 C60.3235325,9.96226329 60.1470638,10.0503146 59.8823579,10.0503146 C59.7058869,10.0503146 59.529411,9.96226329 59.3529409,9.87421383 C59.1764703,9.78616256 59,9.6981131 58.8235301,9.52201191 C58.6470596,9.43396245 58.3823578,9.25786172 58.117652,9.16981226 C57.8529453,9.08176054 57.5,8.99371017 57.0588242,8.99371017 C56.5294125,8.99371017 56.0882357,9.08176009 55.7352946,9.25786082 C55.3823535,9.43396065 55.029412,9.6981131 54.8529419,10.0503146 C54.5882356,10.4025165 54.4117664,10.8427678 54.3235311,11.2830192 C54.2352959,11.811321 54.1470633,12.3396227 54.1470633,12.9559744 C54.1470633,14.2767294 54.4117637,15.2452843 54.9411754,15.9496868 C55.4705875,16.6540897 56.1764715,17.006288 57.0588242,17.006288 C57.5,17.006288 57.9411796,16.9182399 58.2058855,16.8301895 C58.4705922,16.7421392 58.7352935,16.5660375 58.9117645,16.4779872 C59.0882341,16.3018869 59.2647101,16.2138365 59.4411811,16.0377358 C59.6176521,15.9496854 59.7941195,15.8616342 60.0588262,15.8616342 C60.4117669,15.8616342 60.6764754,15.9496863 60.7647111,16.2138365 L62,17.7106932 C61.5588232,18.1509446 61.1176468,18.591196 60.67647,18.8553462 C60.2352936,19.1194977 59.7058833,19.3836479 59.264707,19.5597482 C58.7352944,19.7358489 58.2941212,19.8239011 57.7647096,19.9119505 C57.235297,20 56.794122,20 56.3529456,20 C55.4705929,20 54.6764709,19.8238993 53.9705887,19.5597482 C53.1764708,19.2075472 52.5588275,18.7672967 51.9411806,18.1509446 C51.3235336,17.534592 50.8823518,16.8301895 50.5294103,15.9496868 C50.1764692,15.0691836 50,14.1006287 50,12.9559744 C50,11.9874208 50.1764705,11.0188668 50.4411764,10.2264139 C50.7058822,9.34591118 51.147059,8.64150871 51.7647059,8.0251566 C52.3823533,7.40880404 53.0882369,6.8805032 53.8823548,6.52830264 C54.6764722,6.17610073 55.7352973,6 56.8823564,6 C57.9411796,6 58.9117654,6.17610073 59.7058833,6.52830264 C60.5,6.8805032 61.2941183,7.40880404 61.9117656,8.0251566 L60.7647111,9.52201191 Z" id="Fill-437"></path>
                        <path d="M69,6 C70.0632919,6 71.0379718,6.17391128 71.8354402,6.52173786 C72.7215162,6.86956444 73.4303833,7.3043471 74.0506369,7.91304283 C74.6708897,8.52173901 75.1139195,9.21739082 75.4683494,10.0869562 C75.8227803,10.956521 76,11.9130438 76,12.9565226 C76,14 75.8227803,15.0434772 75.4683494,15.9130425 C75.1139195,16.7826083 74.6708897,17.4782605 74.0506369,18.0869558 C73.4303833,18.695652 72.7215162,19.1304365 71.8354402,19.4782621 C70.9493647,19.8260887 70.0632919,20 69,20 C67.9367095,20 66.9620218,19.8260887 66.1645539,19.4782621 C65.2784779,19.1304365 64.5696172,18.695652 63.949364,18.0869558 C63.3291108,17.4782605 62.8860746,16.7826083 62.5316442,15.9130425 C62.1772138,15.0434772 62,14.0869571 62,12.9565226 C62,11.9130438 62.1772138,10.956521 62.5316442,10.0869562 C62.8860746,9.21739082 63.3291108,8.52173901 63.949364,7.91304283 C64.5696172,7.3043471 65.2784779,6.86956444 66.1645539,6.52173786 C67.0506294,6.17391128 68.0253167,6 69,6 Z M69.0000002,16.9565214 C69.9746833,16.9565214 70.6835455,16.608697 71.1265835,16.0000017 C71.5696219,15.3043486 71.8354402,14.3478263 71.8354402,13.0434778 C71.8354402,11.7391298 71.5696219,10.6956514 71.1265835,10.0869562 C70.6835455,9.47826042 69.9746833,9.13043429 69.0000002,9.13043429 C68.0253167,9.13043429 67.316455,9.47826042 66.873417,10.0869562 C66.430379,10.6956514 66.1645539,11.7391298 66.1645539,13.0434778 C66.1645539,14.3478263 66.430379,15.3913051 66.873417,16.0000017 C67.316455,16.608697 68.0253167,16.9565214 69.0000002,16.9565214 Z" id="Fill-438"></path>
                        <path d="M86.5405383,19.8237885 C86.277025,19.8237885 86.1013521,19.7356819 85.925677,19.6475752 C85.750001,19.5594699 85.6621686,19.3832602 85.5743304,19.1189416 L85.2229712,18.0616736 C84.9594579,18.3259904 84.6959446,18.5903085 84.3445926,18.8546253 C84.0810793,19.1189435 83.7297363,19.2951518 83.3783847,19.4713633 C83.0270341,19.6475752 82.6756798,19.7356819 82.2364905,19.8237885 C81.7973016,19.9118934 81.4459501,20 80.9189234,20 C80.2162208,20 79.5135209,19.8237885 78.9864942,19.5594717 C78.3716293,19.2070487 77.8445996,18.7665169 77.4054107,18.1497771 C76.9662214,17.5330373 76.614873,16.8281923 76.3513592,15.9471344 C76.0878459,15.0660778 76,14.0969165 76,12.9515418 C76,11.8942728 76.1756755,11.0132154 76.4391893,10.1321584 C76.7027026,9.25110094 77.1418996,8.45814879 77.6689267,7.84140858 C78.1959538,7.22466881 78.8108101,6.6960348 79.5135128,6.34361272 C80.2162154,5.99119019 81.0067531,5.81497825 81.8851318,5.81497825 C82.5878339,5.81497825 83.2026988,5.90308355 83.6418877,6.16739988 C84.1689152,6.34361182 84.6081037,6.60792815 84.9594552,6.96035158 L84.9594552,-5.68434189e-14 L89,-5.68434189e-14 L89,19.8237885 L86.5405383,19.8237885 Z M82.4121638,16.9162989 C82.6756771,16.9162989 82.9391855,16.9162989 83.2026988,16.8281923 C83.4662117,16.7400856 83.6418904,16.6519808 83.9054037,16.563876 C84.0810793,16.4757693 84.2567526,16.2995574 84.5202659,16.1233459 C84.6959419,15.9471344 84.8716228,15.7709243 85.0472988,15.5947128 L85.0472988,9.77973586 C84.6959468,9.42731243 84.4324286,9.1629943 84.081077,9.07488855 C83.7297259,8.89867842 83.3783847,8.89867842 82.9391958,8.89867842 C82.5878447,8.89867842 82.2364829,8.98678371 81.8851318,9.1629952 C81.5337798,9.33920579 81.2702723,9.51541818 81.0945963,9.86784161 C80.831083,10.2202641 80.6554016,10.6607933 80.5675642,11.1894273 C80.4797265,11.7180622 80.3918909,12.3348011 80.3918909,13.1277524 C80.3918909,13.8325983 80.4797265,14.449339 80.5675642,14.977973 C80.6554016,15.5066079 80.8310776,15.8590309 81.0067531,16.2114543 C81.1824287,16.4757707 81.4459451,16.7400856 81.7094585,16.8281923 C81.7972962,16.8281923 82.14865,16.9162989 82.4121638,16.9162989 Z" id="Fill-439"></path>
                        <path d="M97.9798689,6 C98.852352,6 99.7248387,6.17391307 100.422826,6.43478311 C101.208061,6.69565182 101.818796,7.13043493 102.342287,7.65217368 C102.865776,8.17391243 103.302013,8.86956425 103.563759,9.56521651 C103.825504,10.3478249 104,11.2173911 104,12.1739129 C104,12.4347816 104,12.6956521 104,12.9565226 C104,13.1304357 103.912755,13.3043488 103.825506,13.3913053 C103.738258,13.4782618 103.651007,13.5652175 103.563759,13.652174 C103.47651,13.652174 103.302013,13.7391292 103.127517,13.7391292 L95.2751644,13.7391292 C95.4496613,14.8695641 95.7114035,15.652176 96.3221417,16.1739148 C96.845632,16.6956544 97.6308671,16.9565214 98.5033511,16.9565214 C98.9395924,16.9565214 99.3758427,16.8695648 99.724836,16.7826083 C100.07383,16.6956518 100.335574,16.5217405 100.59732,16.4347835 C100.859065,16.2608704 101.120812,16.173913 101.295309,16.0869565 C101.469806,16 101.73154,15.9130425 101.993286,15.9130425 C102.342279,15.9130425 102.516778,16 102.691275,16.2608704 L103.825506,17.7391319 C103.389265,18.173915 102.953017,18.6086964 102.429528,18.869566 C101.906037,19.1304356 101.469798,19.3913047 100.946308,19.5652178 C100.422817,19.7391313 99.8993249,19.8260887 99.3758342,19.9130453 C98.8523444,20 98.4161053,20 97.8926151,20 C96.9328831,20 96.0604076,19.8260878 95.187924,19.5652178 C94.3154405,19.2173917 93.6174534,18.7826103 93.0067147,18.173915 C92.3959765,17.5652184 91.8724755,16.7826083 91.5234822,15.9130425 C91.1744888,15.0434772 91,14 91,12.7826091 C91,11.9130438 91.1744969,11.0434776 91.4362418,10.1739136 C91.7852351,9.39130389 92.2214769,8.69565207 92.7449671,8.08695679 C93.2684573,7.47826061 94.0536871,6.95652097 94.8389222,6.60869439 C95.9731511,6.17391217 96.9328885,6 97.9798689,6 Z M98.0671093,8.78260771 C97.2818742,8.78260771 96.6711436,9.04347865 96.2349013,9.47826131 C95.7986596,9.91304442 95.5369147,10.5217379 95.3624182,11.3913041 L100.422826,11.3913041 C100.422826,11.0434776 100.422826,10.7826077 100.335572,10.4347823 C100.248324,10.0869562 100.073827,9.826087 99.8993298,9.65217393 C99.7248338,9.39130389 99.4630858,9.21739171 99.2013404,9.04347865 C98.8523471,8.86956514 98.5033511,8.78260771 98.0671093,8.78260771 Z" id="Fill-440"></path>
                    </g>
                </g>
            </g>
        </g>
    </g>
</svg>